<svg viewBox="0 0 442.8 120.32" xmlns="http://www.w3.org/2000/svg" data-name="Layer 1" id="Layer_1">
  <defs>
    <style>
      .cls-1 {
        fill: #5c1c4f;
        stroke-width: 0px;
      }
    </style>
  </defs>
  <path d="m368.87,114.92v2.9h-41.21c0-.42-.01-.96,0-1.5.01-.43.06-.86.09-1.27,3.66-.8,4.76-2.03,5.15-5.91.18-1.82.3-3.65.3-5.47.02-15.91.02-31.82,0-47.72,0-1.33-.08-2.66-.26-3.97-.72-5.39-4.19-7.28-9.32-6.14-5.11,1.14-9.31,7.4-8.84,12.62.12,1.32.16,2.65.16,3.98.01,13.86,0,27.71.02,41.57,0,1.55.11,3.1.29,4.64.53,4.48,1.99,5.87,6.56,6.29v2.89h-39.47c-.02-.29-.06-.77-.07-1.25-.01-.49,0-.99,0-1.61,3.81-.19,4.77-2.8,5.08-5.88.16-1.6.29-3.2.29-4.8.02-16.46.04-32.92-.02-49.39,0-1.96-.33-3.98-.84-5.88-.63-2.33-2.31-3.4-4.71-3.45-6.08-.14-11.03,4.32-11.06,10.42-.09,17.02-.01,34.03.02,51.05,0,1.05.17,2.1.35,3.13.55,3.15,1.68,4.27,4.9,4.84v2.81h-40.95v-2.81c7.04-.5,7.79-3.53,8.31-9.37.02-.22,0-.44,0-.66,0-16.63,0-33.26-.02-49.89,0-1.43-.08-2.9-.36-4.3-.85-4.24-1.6-7.28-7.97-7.99v-3.04c11.95.78,23.75.36,35.61-1.67v10.18c.35-.28.53-.36.62-.51,4.36-6.72,10.9-9.61,18.57-10,3.89-.2,7.89.11,11.72.82,5.98,1.12,9.97,4.81,11.73,10.74.06.21.13.42.21.63.02.04.07.07.19.2.17-.19.38-.36.5-.57,3.93-7.09,10.27-10.47,18.04-11.56,4.47-.63,8.96-.74,13.41.18,8.66,1.78,12.95,6.4,13.99,15.21.39,3.29.61,6.62.63,9.94.07,13.69.01,27.38.05,41.07,0,1.6.13,3.22.42,4.79.65,3.57,2.74,5.34,6.39,5.62.44.03.88.06,1.53.1Z" class="cls-1"></path>
  <path d="m0,4.74V1.71c11.9.75,23.76.38,35.7-1.71v48.46c1.09-1.3,1.84-2.27,2.67-3.17,5.26-5.7,12.06-7.56,19.51-7.7,11.45-.21,20.28,6.39,24.28,18.06,2.61,7.62,3.03,15.49,2.8,23.45-.18,6.33-.91,12.59-2.82,18.66-4.15,13.2-15.24,21.8-29.1,22.36-4.14.17-8.31-.04-12.45-.34-1.78-.13-3.56-.8-5.26-1.43-6.89-2.58-13.83-2.98-20.82-.53-1.45.51-2.83,1.28-4.11,2.12-.73.48-1.18.55-1.87.02-.68-.53-1.16-.91-.96-1.99.43-2.33.8-4.71.8-7.07.05-30.98.05-61.95,0-92.93,0-2.25-.24-4.55-.71-6.75-.9-4.21-2.61-5.66-6.82-6.3-.27-.04-.53-.1-.86-.17Zm35.73,80.12c0,9.64-.02,19.28.03,28.92,0,.66.3,1.7.76,1.91,5.53,2.48,10.84,2.23,14.5-3.58,2.04-3.24,3.15-6.84,3.81-10.56,2.47-14.08,2.33-28.22.6-42.36-.45-3.69-1.45-7.29-3.59-10.43-1.38-2.02-3.15-3.31-5.8-3.23-5.7.18-10.29,4.91-10.31,10.89-.03,9.47,0,18.95,0,28.43Z" class="cls-1"></path>
  <path d="m139.53,42.8v-3.04c11.92.78,23.72.37,35.61-1.68v2.07c0,20.73-.03,41.46.04,62.19,0,2.01.39,4.08.92,6.03.61,2.22,2.32,3.43,4.6,3.8,6.78,1.1,12.68-3.85,12.69-10.7.02-15.41.02-30.82-.01-46.23,0-1.55-.09-3.12-.39-4.63-.8-4-1.64-7.21-8-7.78v-3.06c11.95.77,23.76.38,35.71-1.69v1.97c0,20.62-.01,41.24.02,61.86,0,1.82.12,3.67.42,5.46.89,5.23,2.67,6.91,7.94,7.65v3.07c-11.88-.71-23.69-.39-35.62,1.72v-10.06c-.3.05-.44.04-.47.09-4.6,6.71-11.31,9.63-19.11,10.2-3.73.27-7.57.21-11.26-.36-8.51-1.32-13.07-6.36-14.14-15.21-.4-3.29-.61-6.62-.64-9.94-.08-13.63-.05-27.27-.1-40.9,0-1.21-.17-2.44-.41-3.63-.92-4.72-2.71-6.35-7.83-7.17Z" class="cls-1"></path>
  <path d="m135.02,114.92c.05.36.09.57.1.78,0,.72,0,1.44,0,2.12h-44.21v-2.83c.26-.05.46-.11.67-.13,4.92-.29,6.98-2.21,7.52-7.1.15-1.32.21-2.65.21-3.98.01-28.54.03-57.08-.03-85.62,0-2.47-.29-4.98-.82-7.4-.82-3.78-2.69-5.29-6.49-5.82-.33-.05-.65-.11-1.05-.18V1.89c5.99,0,11.91.2,17.81-.06,5.9-.26,11.79-.98,17.9-1.52v1.91c0,33.86,0,67.72.02,101.58,0,1.65.09,3.33.39,4.96.78,4.23,2.7,5.83,7.02,6.09.27.02.54.04.96.06Z" class="cls-1"></path>
  <path d="m442.8,71.47h-39.2c0,2.15-.01,4.16,0,6.18.04,4.78.43,9.52,1.97,14.09,3.37,9.97,12.53,14.36,22.45,10.8,4.04-1.45,7.23-4.02,9.93-7.29q1.47-1.79,3.85-.57c-1.7,5.56-4.52,10.5-8.25,14.97-6.67,7.99-15.29,11.13-25.52,10.59-5.91-.31-11.51-1.57-16.66-4.56-6.97-4.04-11.5-10.04-13.66-17.71-3.22-11.41-3.6-22.99-.56-34.48,3.8-14.35,13.63-22.35,27.95-25.13,5.48-1.06,11.03-1.15,16.55-.1,8.13,1.55,14.09,5.92,17.56,13.51,2.83,6.18,3.46,12.76,3.6,19.71Zm-22.25-2.99c.13-5.9-.06-11.69-1.25-17.4-.49-2.36-1.15-4.76-2.21-6.91-1.88-3.81-5.38-4.13-8.11-.85-1.04,1.25-1.97,2.77-2.38,4.31-1.08,4.05-1.96,8.15-2.68,12.28-.49,2.8-.56,5.67-.82,8.56h17.46Z" class="cls-1"></path>
</svg>