<svg width="530" height="480" viewBox="0 0 530 480" fill="none" xmlns="http://www.w3.org/2000/svg">
<path d="M-671.391 0L-671.391 480M-504.374 0L-504.374 480M-337.358 0V480M-170.341 0V480M-3.32452 0V480M163.692 0V480M330.708 0V480M497.725 0V480M247.2 0V480M80.1836 0V480M-86.8328 0V480M-253.849 0V480M-420.866 0L-420.866 480M-587.883 0L-587.883 480M-754.899 0L-754.899 480M414.217 0V480M-788 448.309L530 448.309M-788 281.332L530 281.332M-788 114.354L530 114.354M-788 364.821L530 364.821M-788 30.8653L530 30.8653M-788 197.843L530 197.843" stroke="url(#paint0_radial_1606_706)" stroke-opacity="0.21" stroke-width="1.66501"/>
<defs>
<radialGradient id="paint0_radial_1606_706" cx="0" cy="0" r="1" gradientUnits="userSpaceOnUse" gradientTransform="translate(-129 240) rotate(90) scale(240 659)">
<stop stop-color="white"/>
<stop offset="1" stop-color="white" stop-opacity="0"/>
</radialGradient>
</defs>
</svg>
